<svg width="48" height="48" viewBox="0 0 48 48" fill="none" xmlns="http://www.w3.org/2000/svg">
<path d="M36.3197 14.2195C36.6394 19.2163 34.2154 22.7194 34.2154 22.7194C34.5303 18.8707 32.9703 13.5514 32.9703 13.5514C31.6378 13.2903 29.5085 13.5706 29.5085 13.5706C29.8157 17.7216 27.7047 21.3466 26.1457 22.681C26.9165 18.0778 25.6897 14.5949 25.6897 14.5949C23.5805 14.0631 20.5575 14.3885 20.5575 14.3885C21.2141 19.2854 18.5127 22.8883 18.5127 22.8883C18.9601 19.4746 17.1361 15.096 17.1361 15.096C15.5876 14.9952 13.1204 15.4992 13.1204 15.4992C14.4212 17.8234 13.3825 22.9315 13.3825 22.9315C12.673 18.7546 10.2884 16.2912 10.2884 16.2912C-3.38587 22.1146 0.216056 30.1373 6.90246 32.5267C13.2106 34.777 33.5367 35.8858 42.6308 31.9402C51.7258 27.9926 45.3217 16.8999 36.3197 14.2195Z" fill="#7A5F45"/>
</svg>
